<svg xmlns="http://www.w3.org/2000/svg" xmlns:xlink="http://www.w3.org/1999/xlink" viewBox="0 0 75 93.75" version="1.1" x="0px" y="0px"><g><path style="" d="M 55.46875 24.9375 C 55.390625 24.929688 55.3125 24.921875 55.238281 24.921875 C 54.304688 24.921875 53.675781 25.703125 52.917969 26.203125 C 51.742188 27.003906 50.28125 27.945312 47.742188 27.945312 C 47.71875 27.945312 47.695312 27.945312 47.667969 27.945312 C 47.628906 27.945312 47.589844 27.945312 47.554688 27.945312 C 45.042969 27.945312 43.59375 27.320312 42.429688 26.523438 C 41.214844 25.726562 40.296875 25.070312 38.074219 25.054688 C 35.859375 25.074219 34.941406 25.726562 33.726562 26.523438 C 32.558594 27.320312 31.097656 27.945312 28.585938 27.945312 C 28.546875 27.945312 28.511719 27.945312 28.472656 27.945312 C 28.445312 27.945312 28.421875 27.945312 28.394531 27.945312 C 25.863281 27.945312 24.402344 27 23.230469 26.203125 C 22.472656 25.703125 21.84375 24.921875 20.914062 24.921875 C 20.835938 24.921875 20.761719 24.929688 20.683594 24.9375 C 20.445312 24.972656 20.289062 25.214844 20.148438 25.414062 C 19.847656 25.84375 19.773438 26.390625 19.953125 26.882812 L 36.566406 72.96875 C 36.796875 73.605469 37.398438 74.03125 38.078125 74.03125 C 38.757812 74.03125 39.359375 73.609375 39.59375 72.96875 L 56.199219 26.882812 C 56.378906 26.390625 56.304688 25.84375 56.003906 25.414062 C 55.863281 25.214844 55.707031 24.96875 55.46875 24.9375 Z M 38.078125 63.34375 L 26.980469 32.5625 C 27.441406 32.609375 27.925781 32.632812 28.4375 32.632812 L 28.585938 32.632812 C 31.644531 32.632812 34.109375 31.929688 36.332031 30.421875 L 36.421875 30.359375 C 37.355469 29.746094 37.355469 29.746094 38.039062 29.742188 C 38.800781 29.746094 38.800781 29.746094 39.734375 30.359375 L 39.824219 30.421875 C 42.046875 31.929688 44.503906 32.632812 47.554688 32.632812 L 47.632812 32.632812 C 47.648438 32.632812 47.734375 32.632812 47.746094 32.632812 C 48.246094 32.632812 48.71875 32.609375 49.171875 32.5625 Z M 38.078125 63.34375 " stroke="none" fill-rule="nonzero" fill="rgb(0.392157%,0.392157%,0.392157%)" fill-opacity="1"/><path style="" d="M 38.046875 0.96875 C 27.738281 0.96875 18.902344 11.21875 18.902344 19.609375 C 18.902344 20.410156 19.550781 21.058594 20.351562 21.058594 C 22.339844 21.058594 23.445312 21.8125 24.332031 22.421875 L 24.460938 22.507812 C 25.585938 23.25 26.753906 24.015625 29.164062 24.039062 C 31.605469 24.015625 32.773438 23.25 33.898438 22.507812 L 34.003906 22.4375 C 34.960938 21.78125 36.023438 21.058594 38 21.058594 L 38.078125 21.058594 C 40.117188 21.058594 41.226562 21.8125 42.117188 22.421875 L 42.238281 22.503906 C 43.367188 23.246094 44.535156 24.015625 46.957031 24.035156 C 49.398438 24.015625 50.566406 23.246094 51.695312 22.503906 L 51.796875 22.4375 C 52.703125 21.816406 53.8125 21.058594 55.796875 21.058594 C 56.597656 21.058594 57.253906 20.410156 57.253906 19.609375 C 57.253906 11.21875 48.390625 0.96875 38.046875 0.96875 Z M 38.046875 0.96875 " stroke="none" fill-rule="nonzero" fill="rgb(0.392157%,0.392157%,0.392157%)" fill-opacity="1"/></g><text x="0" y="90" fill="#000000" font-size="5px" font-weight="bold" font-family="'Helvetica Neue', Helvetica, Arial-Unicode, Arial, Sans-serif">Created by Lloyd Humphreys</text><text x="0" y="95" fill="#000000" font-size="5px" font-weight="bold" font-family="'Helvetica Neue', Helvetica, Arial-Unicode, Arial, Sans-serif">from the Noun Project</text></svg>