<svg xmlns="http://www.w3.org/2000/svg" xmlns:xlink="http://www.w3.org/1999/xlink" version="1.1" x="0px" y="0px" viewBox="0 0 48 124.99875" enable-background="new 0 0 48 99.999" xml:space="preserve"><path fill="none" d="M21,86.554v8.445c0,1.114,0.618,2.077,1.522,2.595C22.896,92.604,21.927,88.865,21,86.554z"/><path fill="none" d="M25.59,78.62c0,1.268,0.644,2.338,1.41,2.363v-4.727C26.233,76.282,25.59,77.353,25.59,78.62z"/><path fill="none" d="M23.499,97.948c0.164,0.028,0.33,0.051,0.501,0.051c1.392,0,2.554-0.956,2.892-2.243  c-3.057-0.496-2.705-3.699-2.445-6.044c0.074-0.662,0.143-1.288,0.143-1.812c0-1.086-0.544-3.044-1.619-5.819  c-1.268-3.275,0.146-6.763,0.794-8.08H21v10.188C22.064,86.09,24.104,90.786,23.499,97.948z"/><path fill="none" d="M44,24c0-11.028-8.972-20-20-20C12.972,4,4,12.972,4,24v40.001h40V24z"/><path fill="none" d="M23.904,81.719c1.134,2.932,1.686,4.953,1.686,6.181c0,0.579-0.072,1.232-0.149,1.923  c-0.305,2.749-0.35,4.581,1.56,4.93V81.984c-1.354-0.02-2.41-1.488-2.41-3.364s1.057-3.345,2.41-3.364V74h-2.106  C24.702,74.341,22.566,78.264,23.904,81.719z"/><path d="M24,0C10.767,0,0,10.767,0,24v42c0,4.411,3.589,8,8,8h11v20.999c0,2.757,2.243,5,5,5s5-2.243,5-5V74h11c4.411,0,8-3.589,8-8  V24C48,10.767,37.233,0,24,0z M22.522,97.594C21.618,97.076,21,96.113,21,94.999v-8.445C21.927,88.865,22.896,92.604,22.522,97.594z   M24,97.999c-0.172,0-0.337-0.022-0.501-0.051c0.605-7.162-1.434-11.858-2.499-13.76V74h2.765c-0.648,1.317-2.062,4.805-0.794,8.08  c1.074,2.775,1.619,4.733,1.619,5.819c0,0.524-0.069,1.15-0.143,1.812c-0.26,2.345-0.612,5.548,2.445,6.044  C26.554,97.043,25.392,97.999,24,97.999z M27,80.983c-0.767-0.025-1.41-1.096-1.41-2.363s0.644-2.338,1.41-2.363V80.983z M27,75.256  c-1.354,0.02-2.41,1.488-2.41,3.364s1.057,3.345,2.41,3.364v12.768c-1.909-0.349-1.864-2.181-1.56-4.93  c0.077-0.69,0.149-1.344,0.149-1.923c0-1.228-0.552-3.249-1.686-6.181c-1.338-3.455,0.798-7.378,0.99-7.719H27V75.256z M40,70H8  c-2.205,0-4-1.793-4-3.999h40C43.999,68.207,42.206,70,40,70z"/><text x="0" y="114.999" fill="#000000" font-size="5px" font-weight="bold" font-family="'Helvetica Neue', Helvetica, Arial-Unicode, Arial, Sans-serif">Created by Matt Brooks</text><text x="0" y="119.999" fill="#000000" font-size="5px" font-weight="bold" font-family="'Helvetica Neue', Helvetica, Arial-Unicode, Arial, Sans-serif">from the Noun Project</text></svg>